<?xml version="1.0" encoding="iso-8859-1"?>
<!-- Generator: Adobe Illustrator 19.0.0, SVG Export Plug-In . SVG Version: 6.00 Build 0)  -->
<svg version="1.1" id="Layer_1" xmlns="http://www.w3.org/2000/svg" xmlns:xlink="http://www.w3.org/1999/xlink" x="0px" y="0px"
	 viewBox="0 0 503.607 503.607" style="enable-background:new 0 0 503.607 503.607;" xml:space="preserve">
<g transform="translate(1 1)">
	<g>
		<g>
			<path d="M250.803-1C112.311-1-1,111.472-1,250.803s113.311,251.803,251.803,251.803s251.803-113.311,251.803-251.803
				S389.295-1,250.803-1z M250.803,485.82c-129.259,0-235.016-105.757-235.016-235.016S121.544,15.787,250.803,15.787
				S485.82,121.544,485.82,250.803S380.062,485.82,250.803,485.82z"/>
			<path d="M250.803,32.574c-120.026,0-218.229,98.203-218.229,218.229c0,120.866,98.203,218.23,218.229,218.23
				s218.23-97.364,218.23-218.23C469.033,130.777,370.829,32.574,250.803,32.574z M452.057,242.41h-58.565v-16.787
				c0-5.036-3.357-8.393-8.393-8.393c-5.036,0-8.393,3.357-8.393,8.393v16.787h-50.361v-16.787c0-5.036-3.357-8.393-8.393-8.393
				c-5.036,0-8.393,3.357-8.393,8.393v16.787h-50.361v-50.361h16.787c5.036,0,8.393-3.357,8.393-8.393s-3.357-8.393-8.393-8.393
				h-16.787v-50.361h16.787c5.036,0,8.393-3.357,8.393-8.393s-3.357-8.393-8.393-8.393h-16.787V49.55
				C363.351,53.875,447.731,138.255,452.057,242.41z M242.41,49.55v58.565h-16.787c-5.036,0-8.393,3.357-8.393,8.393
				s3.357,8.393,8.393,8.393h16.787v50.361h-16.787c-5.036,0-8.393,3.357-8.393,8.393s3.357,8.393,8.393,8.393h16.787v50.361
				h-50.361v-16.787c0-5.036-3.357-8.393-8.393-8.393s-8.393,3.357-8.393,8.393v16.787h-50.361v-16.787
				c0-5.036-3.357-8.393-8.393-8.393s-8.393,3.357-8.393,8.393v16.787H49.55C53.875,138.255,138.255,53.875,242.41,49.55z
				 M49.55,259.197h58.565v16.787c0,5.036,3.357,8.393,8.393,8.393s8.393-3.357,8.393-8.393v-16.787h50.361v16.787
				c0,5.036,3.357,8.393,8.393,8.393s8.393-3.357,8.393-8.393v-16.787h50.361v50.361h-16.787c-5.036,0-8.393,3.357-8.393,8.393
				c0,5.036,3.357,8.393,8.393,8.393h16.787v50.361h-16.787c-5.036,0-8.393,3.357-8.393,8.393c0,5.036,3.357,8.393,8.393,8.393
				h16.787v58.565C138.255,447.731,53.875,363.351,49.55,259.197z M259.197,452.057v-58.565h16.787c5.036,0,8.393-3.357,8.393-8.393
				c0-5.036-3.357-8.393-8.393-8.393h-16.787v-50.361h16.787c5.036,0,8.393-3.357,8.393-8.393c0-5.036-3.357-8.393-8.393-8.393
				h-16.787v-50.361h50.361v16.787c0,5.036,3.357,8.393,8.393,8.393c5.036,0,8.393-3.357,8.393-8.393v-16.787h50.361v16.787
				c0,5.036,3.357,8.393,8.393,8.393c5.036,0,8.393-3.357,8.393-8.393v-16.787h58.565
				C447.731,363.351,363.351,447.731,259.197,452.057z"/>
		</g>
	</g>
</g>
<g>
</g>
<g>
</g>
<g>
</g>
<g>
</g>
<g>
</g>
<g>
</g>
<g>
</g>
<g>
</g>
<g>
</g>
<g>
</g>
<g>
</g>
<g>
</g>
<g>
</g>
<g>
</g>
<g>
</g>
</svg>
